<svg id="visual" viewBox="0 0 2600 850" width="2600" height="850" xmlns="http://www.w3.org/2000/svg" xmlns:xlink="http://www.w3.org/1999/xlink" version="1.1"><rect x="0" y="0" width="2600" height="850" fill="#f5f5f5"></rect><path d="M0 240L200 261L400 340L600 304L800 348L1000 301L1200 309L1400 245L1600 248L1800 320L2000 262L2200 333L2400 342L2600 336L2600 0L2400 0L2200 0L2000 0L1800 0L1600 0L1400 0L1200 0L1000 0L800 0L600 0L400 0L200 0L0 0Z" fill="#633ea3"></path><path d="M0 252L200 235L400 265L600 283L800 228L1000 226L1200 291L1400 229L1600 281L1800 217L2000 206L2200 310L2400 293L2600 203L2600 0L2400 0L2200 0L2000 0L1800 0L1600 0L1400 0L1200 0L1000 0L800 0L600 0L400 0L200 0L0 0Z" fill="#493c92"></path><path d="M0 262L200 254L400 230L600 182L800 261L1000 256L1200 239L1400 190L1600 183L1800 238L2000 252L2200 182L2400 174L2600 225L2600 0L2400 0L2200 0L2000 0L1800 0L1600 0L1400 0L1200 0L1000 0L800 0L600 0L400 0L200 0L0 0Z" fill="#333980"></path><path d="M0 182L200 232L400 160L600 227L800 166L1000 201L1200 163L1400 164L1600 222L1800 175L2000 156L2200 218L2400 145L2600 159L2600 0L2400 0L2200 0L2000 0L1800 0L1600 0L1400 0L1200 0L1000 0L800 0L600 0L400 0L200 0L0 0Z" fill="#21336b"></path><path d="M0 181L200 138L400 112L600 131L800 190L1000 192L1200 175L1400 112L1600 122L1800 188L2000 122L2200 188L2400 135L2600 187L2600 0L2400 0L2200 0L2000 0L1800 0L1600 0L1400 0L1200 0L1000 0L800 0L600 0L400 0L200 0L0 0Z" fill="#152d56"></path><path d="M0 128L200 109L400 115L600 144L800 116L1000 143L1200 151L1400 130L1600 129L1800 118L2000 103L2200 111L2400 117L2600 130L2600 0L2400 0L2200 0L2000 0L1800 0L1600 0L1400 0L1200 0L1000 0L800 0L600 0L400 0L200 0L0 0Z" fill="#112541"></path><path d="M0 96L200 96L400 105L600 102L800 111L1000 103L1200 93L1400 56L1600 105L1800 65L2000 106L2200 102L2400 99L2600 98L2600 0L2400 0L2200 0L2000 0L1800 0L1600 0L1400 0L1200 0L1000 0L800 0L600 0L400 0L200 0L0 0Z" fill="#121d2c"></path><path d="M0 32L200 38L400 40L600 48L800 29L1000 49L1200 24L1400 49L1600 58L1800 66L2000 24L2200 24L2400 58L2600 34L2600 0L2400 0L2200 0L2000 0L1800 0L1600 0L1400 0L1200 0L1000 0L800 0L600 0L400 0L200 0L0 0Z" fill="#111418"></path></svg>