<svg id="visual" viewBox="0 0 2600 850" width="2600" height="850" xmlns="http://www.w3.org/2000/svg" xmlns:xlink="http://www.w3.org/1999/xlink" version="1.1"><rect x="0" y="0" width="2600" height="850" fill="#f5f5f5"></rect><path d="M0 236L200 275L400 326L600 242L800 321L1000 291L1200 281L1400 271L1600 264L1800 343L2000 242L2200 353L2400 346L2600 278L2600 0L2400 0L2200 0L2000 0L1800 0L1600 0L1400 0L1200 0L1000 0L800 0L600 0L400 0L200 0L0 0Z" fill="#633ea3"></path><path d="M0 220L200 311L400 261L600 238L800 278L1000 244L1200 262L1400 267L1600 309L1800 223L2000 303L2200 250L2400 308L2600 223L2600 0L2400 0L2200 0L2000 0L1800 0L1600 0L1400 0L1200 0L1000 0L800 0L600 0L400 0L200 0L0 0Z" fill="#493c92"></path><path d="M0 274L200 234L400 194L600 263L800 249L1000 208L1200 253L1400 211L1600 273L1800 178L2000 273L2200 233L2400 177L2600 193L2600 0L2400 0L2200 0L2000 0L1800 0L1600 0L1400 0L1200 0L1000 0L800 0L600 0L400 0L200 0L0 0Z" fill="#333980"></path><path d="M0 149L200 142L400 202L600 191L800 232L1000 199L1200 204L1400 223L1600 226L1800 172L2000 209L2200 218L2400 168L2600 194L2600 0L2400 0L2200 0L2000 0L1800 0L1600 0L1400 0L1200 0L1000 0L800 0L600 0L400 0L200 0L0 0Z" fill="#21336b"></path><path d="M0 165L200 174L400 154L600 190L800 176L1000 165L1200 158L1400 151L1600 121L1800 161L2000 116L2200 182L2400 137L2600 173L2600 0L2400 0L2200 0L2000 0L1800 0L1600 0L1400 0L1200 0L1000 0L800 0L600 0L400 0L200 0L0 0Z" fill="#152d56"></path><path d="M0 124L200 88L400 131L600 106L800 120L1000 95L1200 117L1400 132L1600 136L1800 109L2000 104L2200 91L2400 88L2600 86L2600 0L2400 0L2200 0L2000 0L1800 0L1600 0L1400 0L1200 0L1000 0L800 0L600 0L400 0L200 0L0 0Z" fill="#112541"></path><path d="M0 99L200 99L400 57L600 58L800 73L1000 87L1200 69L1400 55L1600 90L1800 92L2000 77L2200 66L2400 59L2600 103L2600 0L2400 0L2200 0L2000 0L1800 0L1600 0L1400 0L1200 0L1000 0L800 0L600 0L400 0L200 0L0 0Z" fill="#121d2c"></path><path d="M0 57L200 44L400 41L600 53L800 51L1000 43L1200 42L1400 66L1600 66L1800 33L2000 36L2200 58L2400 50L2600 55L2600 0L2400 0L2200 0L2000 0L1800 0L1600 0L1400 0L1200 0L1000 0L800 0L600 0L400 0L200 0L0 0Z" fill="#111418"></path></svg>