<svg id="visual" viewBox="0 0 2600 850" width="2600" height="850" xmlns="http://www.w3.org/2000/svg" xmlns:xlink="http://www.w3.org/1999/xlink" version="1.1"><rect x="0" y="0" width="2600" height="850" fill="#f5f5f5"></rect><path d="M0 608L200 587L400 508L600 544L800 500L1000 547L1200 539L1400 603L1600 600L1800 528L2000 586L2200 515L2400 506L2600 512L2600 851L2400 851L2200 851L2000 851L1800 851L1600 851L1400 851L1200 851L1000 851L800 851L600 851L400 851L200 851L0 851Z" fill="#633ea3"></path><path d="M0 596L200 613L400 583L600 565L800 620L1000 622L1200 557L1400 619L1600 567L1800 631L2000 642L2200 538L2400 555L2600 645L2600 851L2400 851L2200 851L2000 851L1800 851L1600 851L1400 851L1200 851L1000 851L800 851L600 851L400 851L200 851L0 851Z" fill="#493c92"></path><path d="M0 586L200 594L400 618L600 666L800 587L1000 592L1200 609L1400 658L1600 665L1800 610L2000 596L2200 666L2400 674L2600 623L2600 851L2400 851L2200 851L2000 851L1800 851L1600 851L1400 851L1200 851L1000 851L800 851L600 851L400 851L200 851L0 851Z" fill="#333980"></path><path d="M0 666L200 616L400 688L600 621L800 682L1000 647L1200 685L1400 684L1600 626L1800 673L2000 692L2200 630L2400 703L2600 689L2600 851L2400 851L2200 851L2000 851L1800 851L1600 851L1400 851L1200 851L1000 851L800 851L600 851L400 851L200 851L0 851Z" fill="#21336b"></path><path d="M0 667L200 710L400 736L600 717L800 658L1000 656L1200 673L1400 736L1600 726L1800 660L2000 726L2200 660L2400 713L2600 661L2600 851L2400 851L2200 851L2000 851L1800 851L1600 851L1400 851L1200 851L1000 851L800 851L600 851L400 851L200 851L0 851Z" fill="#152d56"></path><path d="M0 720L200 739L400 733L600 704L800 732L1000 705L1200 697L1400 718L1600 719L1800 730L2000 745L2200 737L2400 731L2600 718L2600 851L2400 851L2200 851L2000 851L1800 851L1600 851L1400 851L1200 851L1000 851L800 851L600 851L400 851L200 851L0 851Z" fill="#112541"></path><path d="M0 752L200 752L400 743L600 746L800 737L1000 745L1200 755L1400 792L1600 743L1800 783L2000 742L2200 746L2400 749L2600 750L2600 851L2400 851L2200 851L2000 851L1800 851L1600 851L1400 851L1200 851L1000 851L800 851L600 851L400 851L200 851L0 851Z" fill="#121d2c"></path><path d="M0 816L200 810L400 808L600 800L800 819L1000 799L1200 824L1400 799L1600 790L1800 782L2000 824L2200 824L2400 790L2600 814L2600 851L2400 851L2200 851L2000 851L1800 851L1600 851L1400 851L1200 851L1000 851L800 851L600 851L400 851L200 851L0 851Z" fill="#111418"></path></svg>